<?xml version="1.0" encoding="UTF-8" standalone="no"?>
<!-- Created with Inkscape (http://www.inkscape.org/) -->

<svg
   width="164.57063mm"
   height="81.322495mm"
   viewBox="0 0 164.57063 81.322495"
   version="1.1"
   id="svg730"
   inkscape:version="1.1.1 (3bf5ae0d25, 2021-09-20)"
   sodipodi:docname="saturn.svg"
   xmlns:inkscape="http://www.inkscape.org/namespaces/inkscape"
   xmlns:sodipodi="http://sodipodi.sourceforge.net/DTD/sodipodi-0.dtd"
   xmlns="http://www.w3.org/2000/svg"
   xmlns:svg="http://www.w3.org/2000/svg">
  <sodipodi:namedview
     id="namedview732"
     pagecolor="#ffffff"
     bordercolor="#666666"
     borderopacity="1.0"
     inkscape:pageshadow="2"
     inkscape:pageopacity="0.0"
     inkscape:pagecheckerboard="0"
     inkscape:document-units="mm"
     showgrid="false"
     fit-margin-top="0"
     fit-margin-left="0"
     fit-margin-right="0"
     fit-margin-bottom="0"
     inkscape:zoom="0.73406285"
     inkscape:cx="380.75759"
     inkscape:cy="59.259231"
     inkscape:window-width="1920"
     inkscape:window-height="1009"
     inkscape:window-x="-8"
     inkscape:window-y="-8"
     inkscape:window-maximized="1"
     inkscape:current-layer="layer1" />
  <defs
     id="defs727" />
  <g
     inkscape:label="Capa 1"
     inkscape:groupmode="layer"
     id="layer1"
     transform="translate(-4.2195159,-4.7538052)">
    <g
       id="g1048">
      <g
         id="g85"
         transform="matrix(0.03761987,0,0,-0.03761987,-443.10374,257.48823)"
         style="fill:#000000">
        <path
           d="m 15682.4,5230.19 c -76,-1.41 -165.8,-0.19 -271.6,4.97 -100.7,4.87 -207.9,13.22 -319.9,24.57 27.2,72.95 46.8,149.56 57.6,228.99 -304.4,117.5 -657.7,230.31 -1024.2,326.15 -216.7,56.64 -432.3,105.78 -639,146.1 206.1,-31.32 420.9,-70.99 637.2,-117.78 496.1,-107.28 970.3,-246.06 1335.4,-390.66 98.5,-39.01 180.7,-75.12 249.3,-107.85 57.4,-27.28 38.8,-113.28 -24.8,-114.49 z m -1649,201.14 c -496.2,107.38 -970.5,246.16 -1335.5,390.76 -98.4,39.01 -180.7,75.02 -249.3,107.75 -57.4,27.38 -38.8,113.37 24.7,114.5 76.1,1.41 165.8,0.28 271.6,-4.97 100.8,-4.88 208,-13.13 320.1,-24.57 -27.2,-72.96 -46.8,-149.57 -57.8,-229 304.4,-117.5 657.8,-230.31 1024.3,-326.05 216.7,-56.64 432.2,-105.78 639,-146.2 -206.1,31.42 -421,70.99 -637.1,117.78 z m 1110.7,383.63 c -84.7,512.39 -529.8,903.15 -1066.2,903.15 -346.4,0 -654.6,-162.89 -852.5,-416.27 303.9,-48.29 636.7,-118.43 972.4,-206.11 219.1,-57.3 431.5,-119.76 632.1,-185.58 -205.9,58.42 -426.8,113.74 -657.6,163.63 -1206.8,261.16 -2227.5,277.39 -2279.6,36.29 -37,-170.57 420.8,-424.23 1118.9,-650.42 84.8,-512.38 529.8,-903.23 1066.3,-903.23 346.3,0 654.7,162.97 852.4,416.36 -303.9,48.2 -636.7,118.34 -972.2,206.11 -219.2,57.2 -431.6,119.75 -632.2,185.49 206,-58.42 426.8,-113.75 657.6,-163.64 1206.8,-261.07 2227.4,-277.29 2279.6,-36.19 36.9,170.57 -420.8,424.14 -1119,650.41"
           style="fill:#000000;fill-opacity:1;fill-rule:nonzero;stroke:none"
           id="path87" />
      </g>
      <g
         id="g89"
         transform="matrix(0.03633117,0,0,-0.03633117,-443.10374,257.48823)"
         style="fill:#000000">
        <path
           d="m 16197,5966.54 c 56.9,0 103,46.13 103,102.93 0,56.9 -46.1,102.93 -103,102.93 -56.8,0 -103,-46.03 -103,-102.93 0,-56.8 46.2,-102.93 103,-102.93"
           style="fill:#000000;fill-opacity:1;fill-rule:nonzero;stroke:none"
           id="path91" />
      </g>
      <path
         d="m 45.214813,68.004223 c -1.837973,0 -3.323167,1.48872 -3.323167,3.32316 0,1.83798 1.485194,3.32317 3.323167,3.32317 1.834444,0 3.323166,-1.48519 3.323166,-3.32317 0,-1.83444 -1.488722,-3.32316 -3.323166,-3.32316"
         style="fill:#000000;fill-opacity:1;fill-rule:nonzero;stroke:none;stroke-width:0.0352778"
         id="path93" />
    </g>
  </g>
</svg>
